<?xml version="1.0" standalone="no"?>
<!DOCTYPE svg PUBLIC "-//W3C//DTD SVG 20010904//EN"
 "http://www.w3.org/TR/2001/REC-SVG-20010904/DTD/svg10.dtd">
<svg version="1.0" xmlns="http://www.w3.org/2000/svg"
 width="2000.000000pt" height="504.000000pt" viewBox="0 0 2000.000000 504.000000"
 preserveAspectRatio="xMidYMid meet">
<metadata>
Created by potrace 1.14, written by Peter Selinger 2001-2017
</metadata>
<g transform="translate(0.000000,504.000000) scale(0.100000,-0.100000)"
fill="#000000" stroke="none">
<path d="M1812 4283 c-8 -17 -27 -117 -55 -292 l-12 -75 -110 -32 c-61 -17
-123 -37 -139 -43 -31 -13 -17 -22 -285 186 -60 47 -98 70 -105 65 -71 -54
-373 -287 -380 -293 -5 -4 29 -76 78 -164 47 -86 86 -162 86 -168 0 -7 -18
-31 -41 -52 -22 -22 -63 -71 -91 -108 -44 -59 -54 -67 -77 -63 -47 9 -461 39
-466 34 -3 -3 -21 -58 -39 -124 -19 -65 -46 -159 -60 -208 -14 -48 -26 -97
-26 -108 0 -15 41 -39 195 -113 l195 -94 0 -128 0 -128 -175 -103 c-96 -57
-175 -107 -175 -111 0 -12 201 -404 214 -418 8 -9 45 -6 156 13 80 13 155 26
167 29 18 4 28 -4 54 -42 18 -27 50 -69 72 -96 l39 -47 -106 -171 c-58 -94
-106 -177 -106 -184 0 -14 389 -288 410 -289 8 0 92 55 186 122 l171 121 76
-29 c68 -27 209 -69 278 -84 23 -5 29 -18 74 -178 27 -95 53 -179 58 -185 14
-19 526 -19 532 -1 3 7 18 89 35 181 16 92 31 171 34 176 3 4 31 13 63 21 32
7 109 30 171 52 62 22 119 37 126 35 7 -3 91 -60 186 -127 l172 -122 55 37
c134 89 358 247 361 254 1 4 -47 88 -108 185 -60 97 -110 179 -110 182 0 13
135 184 145 184 6 0 78 -11 161 -25 82 -14 159 -25 171 -25 18 0 39 34 128
208 69 134 104 212 98 220 -4 7 -87 59 -183 115 l-175 103 -3 120 -3 120 206
98 c166 80 205 103 205 119 0 11 -23 99 -51 196 -28 97 -56 190 -61 208 -5 18
-13 35 -18 38 -5 3 -118 -4 -252 -15 -134 -11 -246 -20 -249 -20 -3 0 -20 20
-38 45 -18 25 -57 74 -87 108 -30 34 -54 66 -54 70 0 5 38 77 85 160 47 83 84
156 83 163 -4 17 -380 304 -398 304 -8 0 -91 -59 -185 -130 -93 -72 -170 -130
-172 -130 -1 0 -24 8 -50 19 -26 10 -87 29 -136 41 l-87 23 -26 86 c-14 47
-40 133 -58 191 l-32 105 -267 3 c-246 2 -267 1 -275 -15z m537 -808 c368 -70
678 -315 808 -637 87 -213 81 -469 -14 -695 -110 -260 -365 -479 -668 -572
-145 -44 -213 -54 -365 -54 -318 0 -601 110 -822 321 -32 30 -58 59 -58 63 0
5 64 10 143 11 l142 3 3 37 c2 29 -1 39 -17 48 -12 6 -21 20 -21 31 0 13 -11
25 -35 35 l-35 14 0 200 c0 110 3 200 8 200 6 -1 67 -77 122 -152 8 -11 29
-37 45 -57 17 -20 46 -56 65 -81 19 -25 77 -98 128 -162 l93 -118 110 0 109 0
0 472 c0 260 3 475 7 479 5 4 24 12 44 18 23 7 39 20 42 33 7 24 -8 68 -23 68
-6 0 -15 11 -20 25 l-10 25 -192 -2 -193 -3 -3 -23 c-2 -13 4 -32 14 -43 10
-11 19 -27 20 -35 3 -18 23 -44 32 -42 4 1 17 -3 30 -10 21 -12 22 -17 22
-172 0 -88 -3 -160 -7 -160 -5 1 -95 111 -201 245 l-193 245 -140 0 c-76 0
-139 4 -139 8 0 18 112 141 171 188 135 108 239 164 389 212 83 26 134 37 275
56 55 8 251 -4 334 -19z m-1229 -590 c7 -8 21 -15 31 -15 18 0 19 -15 19 -395
l0 -395 -27 -6 c-34 -9 -43 4 -83 113 -80 221 -76 461 11 662 23 55 30 59 49
36z"/>
<path d="M2387 2866 c-62 -17 -125 -61 -149 -106 -15 -27 -18 -49 -15 -100 8
-125 76 -220 327 -456 100 -94 105 -101 90 -119 -34 -41 -132 -3 -215 84 -39
41 -40 41 -112 41 -63 0 -73 -2 -73 -17 0 -30 56 -195 82 -243 22 -40 29 -45
63 -48 58 -5 105 6 105 25 0 17 10 16 120 -12 113 -29 252 -4 318 58 57 53 77
147 52 239 -21 75 -107 184 -266 335 -84 81 -154 153 -154 160 0 21 68 16 109
-9 20 -12 61 -42 91 -68 56 -47 100 -68 100 -47 0 8 4 7 9 -2 6 -9 20 -11 50
-6 49 8 56 17 43 53 -6 15 -23 61 -38 102 -15 41 -32 80 -38 85 -6 6 -19 22
-29 38 -16 24 -23 27 -73 27 -39 0 -56 -4 -60 -15 -4 -8 -17 -15 -30 -15 -12
0 -49 7 -81 15 -69 18 -161 18 -226 1z"/>
<path d="M13345 4276 c-181 -49 -361 -167 -444 -292 -79 -120 -98 -296 -47
-447 31 -93 47 -119 161 -262 48 -60 99 -132 113 -160 51 -99 26 -212 -64
-280 -37 -29 -133 -64 -251 -95 -36 -9 -43 -15 -43 -35 0 -49 153 -347 202
-392 20 -19 29 -20 69 -13 167 32 352 132 466 253 94 99 144 199 167 329 l11
68 157 -238 c85 -130 161 -247 167 -260 10 -19 9 -30 -6 -60 -34 -69 -105
-100 -258 -111 -87 -6 -90 -7 -93 -31 -2 -14 17 -75 41 -136 25 -60 48 -124
52 -142 3 -18 16 -37 28 -43 28 -16 404 -6 436 10 40 22 335 435 485 680 163
267 207 353 218 429 l11 70 21 -26 c11 -15 47 -58 79 -97 93 -111 114 -167 85
-230 -18 -39 -66 -63 -174 -85 -54 -11 -102 -24 -107 -29 -5 -5 -1 -26 8 -47
20 -50 110 -198 148 -248 l31 -38 58 6 c123 12 313 106 412 202 21 21 50 63
64 93 23 50 26 69 27 171 0 104 -3 121 -26 171 -15 30 -51 85 -81 120 -131
155 -145 184 -119 252 15 39 75 79 128 85 l46 5 -7 -85 c-8 -103 1 -118 69
-118 77 0 78 -3 65 -321 -7 -193 -8 -290 0 -329 31 -162 163 -239 390 -227
118 6 230 36 317 87 l51 29 7 68 c4 38 7 71 8 75 1 3 22 -17 47 -46 124 -144
264 -211 471 -223 198 -12 375 37 479 134 l59 54 3 -73 3 -73 50 -8 c27 -5
123 -7 213 -5 131 2 165 6 172 18 6 9 10 179 10 409 l0 394 35 32 c99 94 212
95 262 2 16 -29 19 -74 23 -437 l5 -405 218 -3 c169 -2 217 0 219 10 1 7 2
182 2 389 l1 375 28 42 c76 116 214 132 272 32 19 -33 20 -54 23 -438 l3 -403
25 -9 c14 -6 108 -10 209 -10 168 0 185 2 197 19 10 14 13 125 12 538 l-1 519
-25 55 c-33 73 -66 109 -128 143 -187 102 -411 63 -578 -101 l-63 -61 -13 33
c-41 98 -164 175 -292 183 -132 8 -227 -26 -361 -132 -44 -35 -84 -62 -87 -59
-3 4 -6 36 -6 72 0 94 -7 111 -40 111 -16 0 -57 -9 -92 -20 -34 -11 -114 -27
-176 -35 -152 -20 -156 -22 -148 -93 4 -32 9 -82 12 -112 l6 -55 -39 63 c-144
235 -356 335 -611 288 -179 -32 -285 -108 -414 -296 -16 -24 -17 -20 -15 95
l2 120 -152 -4 c-142 -3 -153 -2 -160 15 -9 24 -9 58 1 236 l9 147 -24 6 c-13
3 -71 12 -129 19 -58 8 -142 23 -187 32 -67 15 -85 16 -95 6 -10 -10 -13 -72
-13 -248 0 -259 1 -254 -63 -254 -27 0 -36 6 -50 31 -9 17 -32 55 -50 85 l-34
54 -52 0 c-153 0 -362 -111 -445 -236 -17 -26 -31 -43 -31 -38 -1 18 -11 89
-15 111 -9 39 -31 42 -246 35 l-204 -7 3 -200 c4 -263 -3 -316 -63 -435 -56
-114 -89 -160 -115 -160 -27 0 -72 64 -131 185 l-49 100 0 253 c0 192 -3 254
-13 257 -27 8 -413 14 -425 7 -9 -6 -14 -66 -19 -220 l-6 -212 -22 37 c-12 21
-68 101 -125 178 -127 173 -154 227 -148 299 6 69 34 108 106 143 47 23 70 28
134 28 42 0 79 3 83 7 4 4 -22 74 -58 155 -36 81 -74 171 -84 198 -17 46 -21
50 -53 52 -19 1 -75 -8 -125 -21z m3644 -929 c41 -27 91 -112 91 -154 0 -38
-32 -45 -199 -47 l-156 -1 -3 30 c-8 68 47 162 113 192 42 19 108 10 154 -20z
m-666 -284 c-4 -108 -1 -167 10 -218 8 -38 14 -71 12 -73 -2 -2 -32 -8 -68
-15 -56 -9 -71 -8 -111 7 -72 28 -80 50 -84 249 -2 92 -1 174 2 182 4 12 28
15 124 15 l119 0 -4 -147z m1157 -305 l-1 -203 -28 65 c-37 85 -92 181 -111
192 -11 7 -38 -4 -94 -36 -95 -55 -156 -69 -262 -65 -60 3 -91 10 -128 29 -50
25 -99 78 -110 116 -6 21 -3 22 86 29 227 16 611 56 626 65 10 5 18 10 20 10
1 0 2 -91 2 -202z"/>
<path d="M5310 4255 c-132 -19 -226 -21 -244 -6 -9 8 -30 10 -58 7 -102 -14
-483 -36 -622 -36 -151 0 -438 15 -508 26 -49 7 -56 -7 -69 -142 -5 -58 -18
-149 -28 -202 -11 -54 -16 -101 -13 -106 5 -10 232 -1 342 13 36 5 67 6 70 4
8 -8 6 -831 -4 -1140 -9 -283 -8 -293 10 -300 33 -14 491 -10 505 4 10 10 10
88 -1 375 -12 336 -16 1050 -6 1067 5 7 337 -17 345 -25 3 -3 7 -319 9 -704 4
-611 6 -701 20 -712 11 -9 71 -14 207 -16 172 -3 193 -2 206 14 12 14 14 82
14 400 l0 382 30 33 c37 39 119 79 163 79 49 0 99 -25 123 -62 20 -32 20 -40
16 -416 -4 -356 -3 -385 13 -405 17 -21 26 -22 212 -25 114 -1 199 2 208 7 12
8 16 44 20 176 l5 165 30 -58 c17 -33 62 -90 106 -134 135 -137 305 -197 524
-185 126 7 204 25 291 67 80 39 154 108 154 142 0 33 -101 237 -130 263 -20
18 -22 18 -48 1 -15 -9 -60 -34 -101 -54 -64 -31 -87 -37 -160 -40 -100 -5
-148 6 -214 48 -33 21 -54 43 -67 73 l-19 42 87 8 c503 46 626 60 643 70 40
25 52 72 47 186 -9 175 -76 320 -203 439 -143 135 -331 180 -535 130 -159 -39
-294 -150 -376 -311 l-31 -60 -7 54 c-21 165 -156 282 -341 296 -126 10 -229
-26 -365 -127 -37 -27 -71 -50 -75 -50 -6 0 -1 447 9 720 1 35 1 35 -44 37
-25 0 -88 -5 -140 -12z m1560 -897 c57 -29 101 -91 107 -151 l5 -46 -38 -7
c-22 -4 -102 -8 -179 -8 l-140 -1 -3 32 c-4 38 31 123 61 151 59 56 118 65
187 30z"/>
<path d="M8135 4259 c-22 -4 -94 -11 -160 -15 -66 -4 -126 -12 -134 -18 -11
-8 -12 -54 -6 -255 4 -135 9 -261 11 -281 8 -75 6 -604 -2 -795 -5 -110 -9
-272 -9 -360 l0 -160 245 0 245 0 -3 498 c-2 337 0 497 7 497 9 0 257 -344
605 -837 l106 -151 83 -7 c45 -3 143 -5 217 -3 l135 3 5 240 c5 221 6 236 18
190 26 -101 91 -214 167 -289 78 -79 152 -122 265 -158 65 -20 95 -23 220 -23
166 1 234 15 342 72 83 43 152 114 143 146 -11 41 -120 250 -136 260 -12 7
-33 0 -85 -31 -88 -52 -159 -72 -250 -72 -95 0 -170 27 -217 79 -32 35 -54 78
-45 86 1 1 68 8 148 14 80 7 239 21 353 32 115 12 210 19 212 17 1 -1 28 -53
58 -114 121 -241 237 -423 287 -449 34 -18 194 -21 251 -5 50 14 68 37 164
206 47 82 88 155 93 163 6 11 23 -13 61 -85 87 -162 159 -264 197 -280 40 -17
211 -19 267 -3 27 7 48 24 76 62 49 66 205 337 276 482 65 133 75 194 74 433
0 189 -9 260 -33 277 -20 15 -364 8 -383 -7 -8 -7 -13 -84 -15 -271 l-3 -262
-51 -100 c-58 -112 -84 -148 -99 -137 -22 15 -55 71 -97 163 l-43 94 3 254 c1
196 -1 257 -10 263 -7 4 -97 8 -199 8 -150 0 -189 -3 -198 -14 -9 -11 -10 -50
-3 -153 4 -76 6 -188 3 -248 -6 -108 -7 -112 -60 -222 -30 -62 -65 -122 -77
-134 l-22 -21 -27 43 c-15 23 -48 83 -74 133 l-46 91 0 252 c0 155 -4 256 -10
261 -5 5 -91 12 -190 16 -217 8 -215 8 -224 -84 l-6 -64 -43 52 c-54 64 -156
133 -242 163 -91 32 -254 32 -355 1 -134 -41 -239 -120 -321 -243 -45 -67 -61
-104 -94 -214 l-18 -60 -1 100 c0 55 4 215 9 355 12 318 14 585 6 599 -11 17
-466 3 -485 -15 -12 -11 -12 -77 4 -466 10 -249 15 -470 11 -491 -13 -70 -13
-70 -426 533 -134 195 -261 381 -283 413 l-40 57 -51 -1 c-28 -1 -69 -5 -91
-10z m1978 -892 c61 -26 127 -121 127 -184 0 -25 -46 -34 -202 -40 l-161 -6 5
61 c5 75 41 131 101 161 49 24 85 26 130 8z"/>
<path d="M6235 1911 l-40 -6 4 -140 4 -139 -32 27 c-40 34 -67 41 -136 35 -66
-6 -113 -36 -152 -97 l-28 -44 -6 34 c-12 73 -60 109 -146 109 -34 0 -63 -9
-102 -30 -30 -17 -55 -30 -57 -30 -1 0 -5 14 -9 31 l-7 31 -57 -7 c-31 -5
-123 -8 -206 -9 -134 -1 -155 -3 -196 -23 -25 -13 -48 -23 -52 -23 -4 0 -7 14
-7 31 l0 32 -47 -7 c-27 -4 -64 -10 -84 -13 l-36 -5 -2 52 c-1 33 -10 68 -23
92 -46 81 -108 98 -359 98 -102 0 -188 -2 -190 -4 -2 -2 -1 -87 3 -188 3 -100
3 -264 -2 -363 -5 -104 -5 -184 0 -189 14 -14 378 -13 426 1 59 19 106 53 131
98 l22 40 3 -70 3 -70 88 -3 87 -3 0 144 c0 98 4 147 12 155 7 7 36 12 65 12
l53 0 0 -149 c0 -170 -5 -161 90 -161 97 0 90 -17 90 227 0 140 3 212 10 208
6 -4 10 -85 10 -209 0 -163 3 -206 14 -215 9 -7 42 -11 88 -9 l73 3 3 157 3
157 30 25 c37 32 60 33 85 5 17 -19 19 -38 19 -175 0 -98 4 -157 11 -164 7 -7
41 -10 85 -8 l74 3 5 68 5 67 29 -45 c40 -65 102 -98 181 -99 50 -1 69 4 101
25 l40 27 10 -22 c8 -19 17 -21 89 -21 l80 0 -3 75 -3 75 21 -35 c54 -87 108
-122 187 -124 44 0 58 4 92 32 22 18 42 32 45 32 2 0 6 -12 8 -27 3 -28 3 -28
83 -28 l80 0 5 227 c7 332 25 305 28 -42 1 -85 1 -163 2 -173 0 -16 9 -17 88
-15 l87 3 0 158 0 159 28 24 c34 29 58 30 82 3 17 -18 19 -39 20 -182 l0 -162
88 -3 87 -3 0 156 0 157 29 29 c35 34 54 36 81 9 18 -18 20 -33 20 -180 0
-184 -7 -174 110 -168 l65 3 5 85 5 85 19 -43 c24 -52 80 -105 132 -123 97
-33 222 -4 280 64 25 30 28 31 38 13 6 -10 23 -36 38 -57 25 -35 31 -38 60
-32 37 7 113 44 144 70 33 27 46 61 46 113 0 54 -7 70 -57 129 -55 67 -42 111
34 111 16 0 32 3 35 8 8 14 -58 127 -78 130 -59 12 -179 -62 -206 -127 l-12
-30 -31 41 c-50 65 -95 83 -204 83 -86 0 -94 -2 -135 -30 -23 -17 -58 -55 -75
-85 l-33 -54 0 39 c0 83 -57 135 -147 135 -58 0 -102 -17 -145 -57 l-26 -25
-12 22 c-40 75 -199 79 -259 6 -20 -24 -31 -19 -31 14 0 17 -6 33 -14 36 -7 3
-49 -1 -92 -8 -63 -11 -89 -11 -129 -2 -79 19 -115 17 -115 -4 0 -31 -11 -32
-49 -7 -28 20 -48 25 -96 25 -99 -1 -175 -49 -212 -137 -16 -39 -21 -42 -17
-10 2 12 5 102 8 200 l4 177 -56 -1 c-32 -1 -75 -5 -97 -8z m-1614 -177 c10
-9 19 -30 19 -46 0 -24 -6 -32 -35 -44 -19 -7 -55 -14 -80 -14 -40 0 -47 3
-56 27 -11 29 -3 84 15 96 18 13 116 0 137 -19z m1524 -216 c53 -24 70 -98 35
-155 -48 -80 -161 -36 -160 62 1 38 21 74 51 91 30 17 42 17 74 2z m542 -8
c79 -48 42 -190 -49 -190 -42 0 -98 57 -98 99 0 42 17 74 48 94 35 22 60 21
99 -3z m1332 -6 c71 -60 32 -184 -58 -184 -28 0 -69 44 -76 83 -12 61 32 124
87 126 9 1 30 -11 47 -25z m-3384 -59 c30 -29 32 -64 6 -96 -17 -21 -28 -24
-93 -24 l-73 0 -3 73 -3 72 71 0 c62 0 74 -3 95 -25z"/>
<path d="M8666 1883 c5 -16 9 -180 9 -365 0 -230 3 -340 11 -348 7 -7 42 -10
90 -8 l79 3 5 75 c5 73 5 74 18 44 27 -63 94 -116 164 -129 39 -7 112 18 137
48 17 21 31 13 31 -19 0 -25 1 -25 83 -22 l82 3 5 40 5 40 24 -42 c13 -23 30
-44 37 -47 16 -6 79 11 124 34 63 32 93 73 98 133 5 59 -8 93 -56 149 -16 18
-32 41 -35 51 -10 27 26 57 68 57 45 0 45 17 4 89 l-31 53 -46 -6 c-57 -8
-124 -46 -154 -89 -36 -50 -33 -131 7 -181 48 -61 66 -92 60 -108 -7 -19 -48
-38 -80 -38 -21 0 -25 6 -31 47 -7 48 0 222 12 280 6 29 3 34 -20 43 -15 5
-51 13 -81 16 l-53 7 -7 -33 -7 -32 -29 28 c-23 22 -40 29 -89 32 -99 7 -175
-35 -224 -123 -16 -29 -17 -21 -13 158 l4 187 -105 0 -104 0 8 -27z m493 -368
c46 -23 63 -92 36 -144 -44 -86 -175 -48 -175 51 0 49 13 73 48 92 35 19 56
20 91 1z"/>
<path d="M10786 1853 c8 -85 10 -293 3 -293 -4 0 -18 17 -32 39 -71 107 -273
125 -371 33 -33 -31 -76 -116 -76 -152 -1 -52 -15 -53 -53 -4 -21 26 -37 51
-37 56 0 21 42 48 75 48 45 0 45 15 4 87 l-32 55 -46 -6 c-52 -7 -125 -48
-153 -87 -22 -29 -34 -95 -24 -134 4 -14 21 -42 40 -63 77 -86 69 -113 -36
-136 -16 -4 -28 -11 -28 -17 0 -20 60 -117 75 -123 44 -17 181 57 210 114 l16
31 32 -43 c43 -57 87 -84 153 -98 100 -21 198 15 254 92 l29 40 3 -64 3 -63
88 0 88 0 5 335 c3 184 6 351 7 370 l2 35 -102 3 -103 3 6 -58z m-187 -339
c31 -22 52 -75 45 -114 -7 -34 -56 -80 -85 -80 -93 0 -121 150 -38 196 32 18
50 17 78 -2z"/>
<path d="M5179 1871 c-20 -20 -29 -39 -29 -61 0 -50 46 -90 105 -90 60 0 95
32 95 86 0 88 -107 128 -171 65z"/>
<path d="M11886 1875 c-29 -27 -36 -86 -13 -116 29 -38 92 -50 141 -28 30 14
50 65 40 103 -16 65 -116 90 -168 41z"/>
<path d="M17645 1875 c-25 -24 -33 -73 -19 -110 17 -44 114 -59 158 -24 21 17
26 29 26 65 0 63 -32 94 -95 94 -35 0 -52 -6 -70 -25z"/>
<path d="M17847 1863 c-4 -3 -7 -47 -7 -97 l0 -91 -112 0 c-102 0 -113 -2
-110 -17 4 -27 -3 -22 -32 22 -32 48 -57 51 -131 16 -48 -22 -115 -85 -115
-108 0 -6 -19 11 -42 37 -52 59 -106 85 -178 85 -68 0 -129 -27 -174 -75 l-33
-37 5 30 c3 26 0 31 -37 46 -23 9 -69 16 -104 16 -79 0 -156 -36 -196 -90
l-26 -36 -29 43 c-56 86 -157 122 -262 94 -51 -14 -116 -69 -142 -121 l-19
-40 -6 38 c-12 74 -64 112 -153 112 -34 0 -62 -8 -101 -30 -29 -16 -55 -30
-58 -30 -3 0 -5 11 -5 24 0 14 -5 28 -10 31 -6 4 -49 1 -97 -6 l-85 -14 6 -45
c4 -25 9 -135 13 -245 4 -129 10 -203 17 -207 18 -13 141 -9 154 4 8 8 12 59
12 164 l0 153 26 20 c31 25 53 26 80 7 17 -13 19 -30 22 -180 4 -191 -4 -179
112 -174 l65 3 5 80 c5 78 5 79 19 48 18 -43 89 -107 137 -124 48 -17 166 -17
214 -1 19 7 48 24 63 38 l28 25 -29 52 c-15 29 -32 51 -38 50 -5 -1 -32 -12
-60 -24 -62 -26 -114 -20 -152 18 -20 20 -22 27 -11 33 12 6 97 15 228 23 20
2 26 -4 31 -29 28 -133 162 -220 298 -194 85 16 95 24 87 73 l-7 42 35 -38
c85 -91 260 -111 363 -41 25 17 40 22 42 14 2 -6 14 -22 26 -36 20 -24 22 -24
73 -11 77 20 132 63 159 122 l22 50 -5 -78 c-5 -62 -3 -81 8 -88 21 -13 156
-11 165 3 4 6 6 83 5 170 -3 154 -2 158 18 158 25 0 24 7 25 -152 1 -119 2
-128 25 -152 47 -50 145 -57 239 -16 37 17 42 23 42 51 l0 33 33 -36 c80 -87
188 -98 264 -26 l23 21 6 -32 7 -32 81 3 81 3 5 39 5 39 23 -41 c13 -23 27
-44 33 -47 17 -11 114 23 158 55 74 54 93 145 45 216 -15 21 -37 52 -50 67
-13 16 -24 33 -24 38 0 22 42 49 75 49 44 0 45 13 3 86 l-31 56 -44 -5 c-24
-2 -65 -18 -91 -34 -62 -38 -92 -84 -92 -140 0 -51 10 -74 56 -126 22 -24 34
-47 34 -66 0 -30 -9 -37 -67 -51 -32 -8 -32 -8 -39 38 -7 48 1 260 12 299 7
27 -18 40 -101 49 -52 6 -54 6 -61 -20 -3 -14 -8 -26 -10 -26 -2 0 -20 11 -40
25 -27 18 -50 25 -87 25 -81 0 -123 -18 -174 -74 l-45 -51 3 55 4 55 -65 5
-65 5 3 71 c2 44 0 74 -7 78 -6 4 -36 11 -67 16 -31 5 -64 12 -73 15 -10 3
-20 2 -24 -2z m-1003 -344 l38 -11 -6 -46 c-3 -26 -2 -64 3 -84 8 -36 8 -38
-26 -49 -68 -22 -121 3 -144 69 -9 26 -8 38 8 69 16 34 52 63 78 63 6 0 27 -5
49 -11z m1595 -15 c37 -31 48 -78 28 -126 -40 -95 -177 -61 -177 44 0 93 82
138 149 82z m-317 -89 l3 -85 -31 -6 c-18 -3 -41 -1 -53 5 -19 10 -21 21 -21
91 l0 80 49 0 50 0 3 -85z m-696 -53 c9 -31 -14 -52 -65 -62 -37 -7 -44 -5
-60 16 l-19 24 -34 -19 c-68 -39 -143 -35 -184 10 -26 28 -11 35 99 43 167 13
179 16 191 48 l11 29 27 -33 c16 -18 31 -44 34 -56z"/>
<path d="M13595 1697 c-49 -23 -115 -86 -115 -110 0 -7 -19 10 -42 37 -52 60
-105 85 -179 86 -77 0 -151 -38 -194 -102 l-33 -47 -6 33 c-17 92 -139 125
-249 66 -31 -16 -59 -30 -62 -30 -3 0 -5 14 -5 30 0 20 -5 30 -16 30 -30 0
-159 -23 -167 -30 -4 -4 -4 -32 1 -63 10 -62 2 -74 -18 -27 -15 36 -71 87
-116 106 -41 17 -143 18 -198 2 -46 -14 -102 -66 -129 -118 l-18 -35 3 75 3
75 -110 3 c-61 2 -146 5 -190 8 -74 5 -84 4 -135 -23 -38 -20 -65 -43 -87 -77
l-33 -48 0 66 0 66 -95 0 -95 0 0 -149 0 -150 -26 -20 c-32 -25 -67 -27 -88
-6 -23 24 -29 77 -23 207 l5 119 -86 -3 c-82 -3 -86 -4 -93 -28 -11 -40 -10
-331 1 -372 14 -51 68 -95 126 -104 41 -6 54 -2 115 29 l69 35 8 -31 8 -32 85
0 84 0 3 75 3 75 22 -40 c59 -105 202 -149 328 -100 10 3 20 2 24 -4 9 -15
148 -14 163 1 7 7 12 41 12 82 l0 69 23 -44 c75 -141 288 -169 399 -52 15 16
37 47 47 68 l20 40 1 -82 c0 -96 0 -96 110 -91 l65 3 3 163 2 163 33 19 c40
25 52 25 77 0 18 -18 20 -33 20 -180 0 -184 -7 -174 110 -168 l65 3 3 74 3 73
28 -44 c50 -78 119 -112 226 -112 74 0 153 22 176 50 11 14 17 11 43 -20 31
-35 32 -36 76 -25 57 13 137 64 154 98 37 73 27 131 -34 205 -58 70 -52 105
22 115 51 7 52 20 9 91 -34 55 -63 61 -136 27z m-1726 -274 c0 -100 -3 -123
-11 -105 -9 17 -16 21 -32 15 -12 -5 -40 -8 -64 -8 -57 1 -94 36 -96 92 -2 78
54 123 129 104 35 -9 42 -8 54 9 7 11 15 20 17 20 2 0 4 -57 3 -127z m456 95
c53 -24 70 -98 35 -155 -37 -61 -108 -53 -142 17 -22 45 -10 99 29 130 30 23
42 25 78 8z m1241 -156 c9 -31 -10 -49 -64 -61 -48 -10 -48 -9 -71 28 -7 12
-14 11 -42 -6 -68 -41 -143 -38 -185 8 -26 28 -11 35 99 43 167 13 178 15 189
48 l10 29 29 -33 c16 -18 32 -43 35 -56z"/>
<path d="M15125 1698 c-49 -18 -86 -48 -116 -96 l-29 -46 0 57 0 57 -95 0 -95
0 0 -149 0 -150 -26 -20 c-34 -26 -68 -27 -94 -1 -15 15 -20 34 -21 78 -1 102
2 196 8 220 5 22 3 22 -85 22 l-91 0 -8 -47 c-4 -27 -8 -111 -7 -188 0 -121 3
-146 22 -188 17 -39 29 -51 68 -69 60 -26 109 -20 176 21 27 17 51 31 54 31 2
0 4 -11 4 -24 0 -38 21 -47 107 -44 l78 3 6 75 c3 41 6 69 7 61 3 -24 52 -80
91 -107 81 -53 232 -53 314 2 43 28 43 41 1 106 l-24 38 -39 -21 c-58 -30
-102 -34 -145 -14 -20 10 -41 26 -46 36 -12 21 -7 22 164 39 60 5 115 15 123
22 11 9 14 29 11 79 -4 81 -41 148 -106 193 -36 25 -54 31 -110 33 -37 1 -80
-3 -97 -9z"/>
<path d="M14044 1676 c-44 -19 -102 -92 -119 -150 -42 -140 11 -297 119 -353
46 -24 124 -21 174 5 23 12 45 22 47 22 3 0 5 -45 5 -100 l0 -100 78 0 c42 0
83 4 89 8 10 6 13 82 12 324 -1 174 1 321 5 326 12 19 -31 32 -108 32 -74 0
-76 -1 -76 -25 l0 -24 -36 24 c-30 20 -49 25 -98 25 -34 -1 -75 -7 -92 -14z
m176 -161 c58 -30 62 -141 7 -180 -26 -18 -47 -19 -80 -4 -66 30 -68 156 -3
187 30 15 43 14 76 -3z"/>
</g>
</svg>
